<svg xmlns="http://www.w3.org/2000/svg" width="1200" height="760" viewBox="0 0 1200 760" role="img" aria-labelledby="title desc">
  <title id="title">经营数据驾驶舱案例图</title>
  <desc id="desc">经营数据看板，包含销售趋势、客户来源、库存预警和指标卡。</desc>
  <defs>
    <linearGradient id="bg" x1="0" y1="0" x2="1" y2="1">
      <stop offset="0" stop-color="#111827"/>
      <stop offset="0.58" stop-color="#312e81"/>
      <stop offset="1" stop-color="#14b8a6"/>
    </linearGradient>
    <filter id="shadow" x="-20%" y="-20%" width="140%" height="140%">
      <feDropShadow dx="0" dy="22" stdDeviation="26" flood-color="#0f1024" flood-opacity="0.34"/>
    </filter>
  </defs>
  <rect width="1200" height="760" fill="url(#bg)"/>
  <path d="M70 608 C264 510 416 654 626 536 C808 434 924 512 1134 392" fill="none" stroke="#5eead4" stroke-width="2" opacity="0.25"/>
  <g filter="url(#shadow)">
    <rect x="94" y="86" width="1012" height="588" rx="28" fill="#f8fafc"/>
    <rect x="94" y="86" width="228" height="588" rx="28" fill="#111827"/>
    <text x="140" y="154" fill="#ffffff" font-size="26" font-weight="900" font-family="Inter, PingFang SC, Microsoft YaHei, sans-serif">经营驾驶舱</text>
    <rect x="140" y="206" width="132" height="42" rx="10" fill="#312e81"/>
    <text x="166" y="233" fill="#ffffff" font-size="16" font-weight="900" font-family="Inter, PingFang SC, Microsoft YaHei, sans-serif">销售趋势</text>
    <text x="154" y="302" fill="#94a3b8" font-size="16" font-weight="800" font-family="Inter, PingFang SC, Microsoft YaHei, sans-serif">客户来源</text>
    <text x="154" y="356" fill="#94a3b8" font-size="16" font-weight="800" font-family="Inter, PingFang SC, Microsoft YaHei, sans-serif">库存预警</text>
    <text x="154" y="410" fill="#94a3b8" font-size="16" font-weight="800" font-family="Inter, PingFang SC, Microsoft YaHei, sans-serif">门店排行</text>
    <rect x="364" y="128" width="196" height="116" rx="18" fill="#ecfeff"/>
    <text x="396" y="174" fill="#0f172a" font-size="18" font-weight="900" font-family="Inter, PingFang SC, Microsoft YaHei, sans-serif">本月销售额</text>
    <text x="396" y="216" fill="#0e7490" font-size="34" font-weight="900" font-family="Inter, PingFang SC, Microsoft YaHei, sans-serif">¥86.4万</text>
    <rect x="592" y="128" width="196" height="116" rx="18" fill="#f0fdf4"/>
    <text x="624" y="174" fill="#0f172a" font-size="18" font-weight="900" font-family="Inter, PingFang SC, Microsoft YaHei, sans-serif">新客线索</text>
    <text x="624" y="216" fill="#15803d" font-size="34" font-weight="900" font-family="Inter, PingFang SC, Microsoft YaHei, sans-serif">1,248</text>
    <rect x="820" y="128" width="196" height="116" rx="18" fill="#fff7ed"/>
    <text x="852" y="174" fill="#0f172a" font-size="18" font-weight="900" font-family="Inter, PingFang SC, Microsoft YaHei, sans-serif">预警库存</text>
    <text x="852" y="216" fill="#c2410c" font-size="34" font-weight="900" font-family="Inter, PingFang SC, Microsoft YaHei, sans-serif">16项</text>
    <rect x="364" y="282" width="424" height="252" rx="22" fill="#ffffff"/>
    <text x="402" y="332" fill="#0f172a" font-size="24" font-weight="900" font-family="Inter, PingFang SC, Microsoft YaHei, sans-serif">销售趋势</text>
    <polyline points="402,476 468,438 534,452 600,390 666,410 732,346" fill="none" stroke="#14b8a6" stroke-width="8" stroke-linecap="round" stroke-linejoin="round"/>
    <polyline points="402,500 468,482 534,492 600,452 666,462 732,432" fill="none" stroke="#818cf8" stroke-width="6" stroke-linecap="round" stroke-linejoin="round" opacity="0.8"/>
    <rect x="820" y="282" width="196" height="252" rx="22" fill="#ffffff"/>
    <text x="852" y="332" fill="#0f172a" font-size="24" font-weight="900" font-family="Inter, PingFang SC, Microsoft YaHei, sans-serif">来源占比</text>
    <circle cx="918" cy="424" r="58" fill="none" stroke="#e2e8f0" stroke-width="24"/>
    <path d="M918 366 A58 58 0 0 1 972 444" fill="none" stroke="#14b8a6" stroke-width="24" stroke-linecap="round"/>
    <path d="M972 444 A58 58 0 0 1 883 470" fill="none" stroke="#f97316" stroke-width="24" stroke-linecap="round"/>
    <rect x="364" y="570" width="652" height="60" rx="14" fill="#f1f5f9"/>
    <text x="404" y="607" fill="#334155" font-size="20" font-weight="900" font-family="Inter, PingFang SC, Microsoft YaHei, sans-serif">10天交付 · 指标卡 · 图表分析 · 预警提醒 · 老板一屏看清</text>
  </g>
</svg>
